<svg class="GlobalNav_qb__5e13f1bd" width="131" height="27" fill="none" xmlns="http://www.w3.org/2000/svg"><path d="M11.6897 23.1956c6.1761 0 11.1829-5.0264 11.1829-11.2267 0-6.20036-5.0068-11.226712-11.1829-11.226712C5.51357.742188.506836 5.76854.506836 11.9689c0 6.2003 5.006734 11.2267 11.182864 11.2267Z" fill="#2CA01C"></path><path d="M7.96024 7.60291c-2.40308 0-4.34891 1.95594-4.34891 4.36589 0 2.4125 1.94583 4.366 4.34891 4.366h.62127v-1.6217h-.62127c-1.50845 0-2.73359-1.2299-2.73359-2.7443 0-1.5143 1.22514-2.74426 2.73359-2.74426h1.49353v8.48236c0 .8957.72313 1.6217 1.61533 1.6217V7.60291H7.96024ZM15.4174 16.3349c2.4031 0 4.3489-1.9559 4.3489-4.3659 0-2.41252-1.9458-4.36596-4.3489-4.36596h-.6212v1.62163h.6212c1.5085 0 2.7336 1.22993 2.7336 2.74433 0 1.5143-1.2251 2.7443-2.7336 2.7443h-1.4935V6.23089c0-.89564-.7232-1.62164-1.6153-1.62164V16.3349h3.1088Z" fill="#fff"></path><path d="M39.9498 6.81215c0 1.26238 1.0065 2.18546 2.2838 2.18546 1.2774 0 2.2863-.92058 2.2863-2.18546v-2.8965h-1.2376v2.74927c0 .68109-.4522 1.13764-1.0512 1.13764-.5964 0-1.0511-.45655-1.0511-1.13764V3.91565h-1.2376l.0074 2.8965ZM47.8301 5.07565h1.4761v3.81708h1.2376V5.07565h1.4761V3.91309h-4.1898v1.16256ZM47.0305 3.91309H45.793v4.97964h1.2375V3.91309ZM34.9498 5.07565h1.476v3.81708h1.2376V5.07565h1.4761V3.91309h-4.1922v1.16256h.0025ZM28.4573 3.91309h-1.2376v4.97964h1.2376V3.91309ZM34.2991 5.9988c0-1.26238-1.0064-2.18545-2.2863-2.18545-1.2773 0-2.2862.92058-2.2862 2.18545v2.89649h1.2375V6.14603c0-.68108.4548-1.13764 1.0512-1.13764.5964 0 1.0512.45656 1.0512 1.13764v2.74926h1.2376l-.005-2.89649ZM80.4441 11.4001c-1.2152 0-2.1073.5338-2.9522 1.3272h-.0498V6.35303h-2.654V21.3244h2.5397v-1.3646h.0398c.5989.9854 1.7868 1.6366 3.0219 1.6366 2.741 0 4.8185-2.1605 4.8185-5.1369-.0025-2.9314-2.0551-5.0594-4.7639-5.0594Zm-.5218 2.2378c1.7172 0 2.572 1.462 2.572 2.8216 0 1.4221-.9319 2.8591-2.572 2.8591-1.6004 0-2.5572-1.4345-2.5572-2.8216 0-1.3747.9766-2.8591 2.5572-2.8591ZM59.2441 13.6779c.6884 0 1.5581.3468 1.8986.8333l1.7122-1.7115c-.8275-.8756-2.1496-1.3996-3.6108-1.3996-2.9747 0-5.1367 2.1431-5.1367 5.097 0 3.0012 2.1347 5.0969 5.1938 5.0969 1.4563 0 2.8007-.4266 3.596-1.2873l-1.665-1.7938c-.3852.469-1.1904.8033-1.9136.8033-1.6153 0-2.4304-1.4495-2.4304-2.8516.0025-1.3996.8847-2.7867 2.3559-2.7867ZM119.81 11.672h-3.422l-3.429 4.0042h-.057V6.35303h-2.657V21.322h2.657v-4.7602h.057l3.556 4.7602h3.494l-4.133-5.2741 3.934-4.3759ZM73.7897 11.672h-3.4245l-3.4269 4.0042h-.0596V6.35303h-2.6541V21.322h2.6541v-4.7602h.0596l3.5562 4.7602h3.494l-4.1327-5.2741 3.9339-4.3759ZM33.7292 16.4971c0 1.3871-.9568 2.8216-2.5572 2.8216-1.6426 0-2.5745-1.4395-2.5745-2.8591 0-1.3596.8573-2.8216 2.5745-2.8216 1.5781 0 2.5572 1.4844 2.5572 2.8591Zm-7.8728-.0375c0 2.9764 1.926 5.1369 4.6646 5.1369 1.245 0 2.413-.6611 3.0914-1.432h.0397v5.9127h2.6542V11.6721h-2.5572v1.2249h-.0596c-.3753-.4166-1.3917-1.4969-3.0418-1.4969-2.7063 0-4.7913 2.1281-4.7913 5.0595ZM44.9247 16.9635c0 1.1352-.7355 2.3551-2.1098 2.3551-1.0586 0-1.6227-.7584-1.6227-2.3152V11.672h-2.6541v5.9901c0 1.9933.9915 3.9343 3.6406 3.9343 1.25 0 2.2962-.988 2.8231-1.7164h.0397v1.4445h2.5398V11.672h-2.6541v5.2915h-.0025ZM52.405 11.672h-2.654v9.6525h2.654V11.672ZM91.6395 11.4001c-3.0219 0-5.2137 2.1281-5.2137 5.0595 0 3.0337 2.2415 5.1618 5.2137 5.1618 2.9721 0 5.2137-2.1505 5.2137-5.1618 0-2.9314-2.1919-5.0595-5.2137-5.0595Zm0 7.9186c-1.7321 0-2.5199-1.4819-2.5199-2.8591 0-1.3596.7878-2.8216 2.5199-2.8216s2.5199 1.462 2.5199 2.8216c0 1.3772-.7878 2.8591-2.5199 2.8591ZM103.307 11.4001c-3.021 0-5.2132 2.1281-5.2132 5.0595 0 3.0337 2.2412 5.1618 5.2132 5.1618 2.973 0 5.214-2.1505 5.214-5.1618-.002-2.9314-2.194-5.0595-5.214-5.0595Zm0 7.9186c-1.732 0-2.519-1.4819-2.519-2.8591 0-1.3596.787-2.8216 2.519-2.8216 1.733 0 2.52 1.462 2.52 2.8216-.002 1.3772-.79 2.8591-2.52 2.8591ZM124.385 13.3885c.825 0 1.755.494 2.105.963l1.566-1.5069c-.723-.9131-2.147-1.4445-3.651-1.4445-1.921 0-3.939.9705-3.939 3.1385 0 1.8612 1.454 2.4225 2.876 2.7643 1.498.3493 2.032.6062 2.032 1.2125 0 .8931-1.009 1.0378-1.356 1.0378-.868 0-1.874-.4989-2.418-1.1451l-1.611 1.6391c.88.9805 2.388 1.5692 3.934 1.5692 2.595 0 4.135-1.2424 4.135-3.2906 0-1.961-1.883-2.6196-3.225-2.9439-1.367-.3268-1.847-.504-1.847-1.0578-.005-.7659.962-.9356 1.399-.9356ZM130.867 20.1013c0-.2677-.227-.3653-.46-.3653h-.437v1.2457h.224v-.5209h.159l.291.5207h.271l-.334-.5454c.174-.0389.286-.1557.286-.3356v.0008Zm-.673.1796v-.355h.203c.116 0 .247.0339.247.1701 0 .1507-.145.1847-.271.1847h-.179v.0002Zm.208-1.0216c-.145-.0006-.289.0275-.423.0828-.134.0552-.256.1365-.358.2391-.103.1026-.184.2246-.24.3589-.055.1342-.084.2782-.084.4236 0 .613.494 1.0948 1.105 1.0948.61 0 1.105-.4815 1.105-1.0948-.001-.1454-.029-.2894-.085-.4237-.055-.1343-.137-.2563-.239-.3589-.103-.1026-.225-.1839-.359-.2391-.134-.0552-.277-.0833-.422-.0827Zm0 2.0383c-.247-.001-.483-.0996-.657-.2745-.174-.175-.273-.4119-.274-.6594.007-.2431.108-.474.282-.6436.174-.1696.406-.2645.649-.2645.242 0 .475.0949.649.2645.173.1696.274.4005.281.6436-.001.2475-.099.4846-.274.6596-.174.175-.41.2734-.656.2743Z" fill="#000"></path></svg>